<svg xmlns="http://www.w3.org/2000/svg" width="91.71" height="91.71" viewBox="0 0 91.71 91.71">
  <path fill="#f58232" d="M33.56 2.16L2.2 33.52C6.44 18.36 18.4 6.4 33.56 2.16Z"/>
  <path fill="#f58232" d="M63.65 4.08L4.12 63.61c-1.68-3.94-2.82-8.18-3.32-12.62L51.04.76c4.42.5 8.66 1.64 12.6 3.32Z"/>
  <path fill="#fff" d="M51.04.76L.8 50.98c-.2-1.7-.3-3.42-.3-5.16 0-4.26.58-8.38 1.7-12.3L33.56 2.16c3.92-1.12 8.04-1.7 12.3-1.7 1.76 0 3.48.1 5.18.3Z"/>
  <path fill="#f58232" d="M81.69 18.04l-63.61 63.61c-2.98-2.28-5.68-4.96-7.98-7.94L73.75 10.06c2.98 2.3 5.66 5 7.94 7.98Z"/>
  <path fill="#fff" d="M73.75 10.06L10.1 73.71c-2.42-3.08-4.42-6.46-5.98-10.1L63.65 4.08c3.64 1.56 7.02 3.56 10.1 5.98Z"/>
  <path fill="#f58232" d="M90.93 40.8l-50.08 50.08c-4.44-.48-8.68-1.62-12.64-3.28l59.45-59.45c1.66 3.96 2.8 8.2 3.28 12.64Z"/>
  <path fill="#fff" d="M87.65 28.16l-59.45 59.45c-3.64-1.54-7.04-3.54-10.12-5.96l63.61-63.61c2.42 3.08 4.4 6.46 5.96 10.1v.02Z"/>
  <path fill="#f58232" d="M89.45 58.37c-4.3 14.96-16.08 26.74-31.04 31.04l31.04-31.04Z"/>
  <path fill="#fff" d="M91.21 45.82c0 4.36-.62 8.54-1.76 12.52v.02l-31.04 31.04c-3.98 1.14-8.18 1.76-12.54 1.76-1.7 0-3.38-.1-5.02-.28l50.08-50.08c.18 1.64.28 3.32.28 5.02Z"/>
  <path fill="none" stroke="#f58232" stroke-miterlimit="10" d="M45.85 91.21c25.02 0 45.35-20.33 45.35-45.35S70.87.5 45.85.5.5 20.83.5 45.85s20.33 45.35 45.35 45.35z"/>
</svg>
