<svg xmlns="http://www.w3.org/2000/svg" width="90.71" height="90.71" viewBox="0 0 90.71 90.71">
  <path fill="#f58232" d="M45.35 90.71c25.02 0 45.35-20.33 45.35-45.35S70.37 0 45.35 0 0 20.33 0 45.35s20.33 45.35 45.35 45.35z"/>
  <path fill="#231f20" d="M55.75 33.83l-5.06-21.34c-.15-.6-.68-1.03-1.3-1.03h-8.08s-.08 0-.13 0c-.57.06-1.05.47-1.18 1.03l-5.06 21.34h20.81Z"/>
  <path fill="#231f20" d="M72.27 69.15v-7.88c0-.74-.6-1.35-1.35-1.35h-8.98l-4.93-20.8h-23.32l-1.13 4.75c-.1.2-.15.41-.15.63l-3.66 15.42h-8.98s-.08 0-.13 0c-.69.07-1.22.65-1.22 1.35v8.08c0 .74.6 1.35 1.35 1.35h50.97c.05 0 .11.02.17.02.38 0 .72-.15.97-.39.25-.24.41-.58.42-.95 0-.08 0-.15-.02-.22Z"/>
</svg>
