<svg xmlns="http://www.w3.org/2000/svg" width="90.71" height="90.71" viewBox="0 0 90.71 90.71">
  <path fill="#f58232" d="M45.35 90.71c25.02 0 45.35-20.33 45.35-45.35S70.37 0 45.35 0 0 20.33 0 45.35s20.33 45.35 45.35 45.35z"/>
  <path fill="#231f20" d="M41.88 54.75l-5.69-33.09c-.09-.56-.14-1.11-.14-1.67 0-4.75 3.1-7.13 9.3-7.13s9.3 2.36 9.3 7.08c0 .65-.05 1.22-.14 1.71l-5.69 33.09h-6.94ZM45.35 61.55c5.43 0 8.15 2.72 8.15 8.15s-2.72 8.15-8.15 8.15-8.15-2.72-8.15-8.15 2.72-8.15 8.15-8.15Z"/>
</svg>
